<svg xmlns="http://www.w3.org/2000/svg" xmlns:xlink="http://www.w3.org/1999/xlink" width="500" zoomAndPan="magnify" viewBox="0 0 375 374.999991" height="500" preserveAspectRatio="xMidYMid meet" version="1.0"><defs><clipPath id="d986364983"><path d="M 127.03125 118.785156 L 247.78125 118.785156 L 247.78125 256.035156 L 127.03125 256.035156 Z M 127.03125 118.785156 " clip-rule="nonzero"/></clipPath><clipPath id="e6af9f01d9"><path d="M 67.15625 56.582031 L 286 56.582031 L 286 301.082031 L 67.15625 301.082031 Z M 67.15625 56.582031 " clip-rule="nonzero"/></clipPath><clipPath id="b34e9dd0d2"><path d="M 133 79 L 307.902344 79 L 307.902344 252 L 133 252 Z M 133 79 " clip-rule="nonzero"/></clipPath></defs><g clip-path="url(#d986364983)"><path fill="#38b6ff" d="M 147.949219 220.753906 L 127.03125 220.753906 C 132.496094 218.308594 136.269531 210.988281 136.269531 201.21875 L 136.261719 138.253906 C 136.261719 128.488281 132.496094 121.25 127.03125 118.800781 L 147.816406 118.800781 L 172.773438 182.777344 L 199.691406 118.847656 L 199.691406 118.800781 L 199.714844 118.800781 C 199.714844 118.800781 203.546875 118.800781 203.546875 118.800781 C 203.546875 118.800781 218.707031 118.800781 218.707031 118.800781 C 213.242188 121.25 209.476562 128.519531 209.476562 138.28125 L 209.476562 149.871094 C 203.75 151.199219 199.691406 154.605469 199.691406 154.605469 L 199.691406 128.042969 L 175.367188 186.421875 C 172.078125 187.949219 168.222656 191.800781 165.96875 195.433594 L 138.710938 127.960938 L 138.710938 201.292969 C 138.710938 211.0625 142.480469 218.304688 147.949219 220.753906 Z M 197.570312 176.109375 C 197.570312 168.03125 203.285156 156.726562 216.574219 156.726562 C 235.730469 156.726562 244.597656 187.339844 244.597656 187.339844 L 244.597656 160.890625 C 237.320312 157.027344 228.386719 153.773438 216.5 153.773438 C 202.71875 153.773438 193.457031 164.652344 193.457031 177.984375 C 193.457031 215.109375 243.527344 205.511719 243.527344 228.121094 C 243.527344 236.507812 233.6875 251.386719 213.007812 251.386719 C 193.742188 251.386719 170.53125 237.847656 170.53125 214.65625 C 170.53125 194.535156 186.929688 187.425781 186.929688 187.425781 L 186.570312 185.796875 C 186.570312 185.796875 165.285156 193.992188 165.285156 220.097656 C 165.285156 242.304688 184.738281 256.195312 207.859375 256.195312 C 232.691406 256.195312 247.957031 239.75 247.957031 224.40625 C 247.957031 193 197.566406 201.925781 197.566406 176.109375 Z M 197.570312 176.109375 " fill-opacity="1" fill-rule="nonzero"/></g><g clip-path="url(#e6af9f01d9)"><path fill="#38b6ff" d="M 205.417969 289.320312 C 144.445312 289.320312 95.015625 239.890625 95.015625 178.914062 C 95.015625 117.9375 144.445312 68.507812 205.417969 68.507812 C 236.992188 68.507812 265.464844 81.765625 285.589844 103.007812 C 263.179688 74.726562 228.53125 56.578125 189.644531 56.578125 C 122.082031 56.578125 67.3125 111.351562 67.3125 178.914062 C 67.3125 246.476562 122.082031 301.25 189.644531 301.25 C 228.53125 301.25 263.179688 283.101562 285.589844 254.816406 C 265.464844 276.0625 236.992188 289.320312 205.417969 289.320312 " fill-opacity="1" fill-rule="nonzero"/></g><path fill="#ffffff" d="M 256.542969 244.578125 C 240.605469 259.3125 219.289062 268.324219 195.863281 268.324219 C 170.300781 268.324219 147.238281 257.589844 130.945312 240.382812 C 133.347656 243.421875 135.925781 246.3125 138.664062 249.042969 C 171.5 281.804688 225.296875 280.621094 255.6875 245.578125 C 255.972656 245.246094 256.257812 244.910156 256.542969 244.578125 " fill-opacity="1" fill-rule="nonzero"/><g clip-path="url(#b34e9dd0d2)"><path fill="#ffffff" d="M 208.640625 79.84375 C 178.433594 79.84375 151.386719 93.363281 133.214844 114.683594 C 150.925781 98.109375 174.722656 87.960938 200.890625 87.960938 C 255.605469 87.960938 299.964844 132.316406 299.964844 187.03125 C 299.964844 211.535156 291.0625 233.957031 276.324219 251.25 C 295.636719 233.175781 307.710938 207.453125 307.710938 178.914062 C 307.710938 124.195312 263.355469 79.84375 208.640625 79.84375 " fill-opacity="1" fill-rule="nonzero"/></g></svg>